<mxfile host="Electron" agent="Mozilla/5.0 (Windows NT 10.0; Win64; x64) AppleWebKit/537.36 (KHTML, like Gecko) draw.io/25.0.1 Chrome/128.0.6613.186 Electron/32.2.6 Safari/537.36" version="25.0.1">
  <diagram name="Page-1" id="ltqWEskjHe9aFZnDIWXi">
    <mxGraphModel dx="979" dy="572" grid="1" gridSize="10" guides="1" tooltips="1" connect="1" arrows="1" fold="1" page="1" pageScale="1" pageWidth="690" pageHeight="980" math="0" shadow="0">
      <root>
        <mxCell id="0" />
        <mxCell id="1" parent="0" />
        <mxCell id="IBf7kv-3qsiW5-9Bh0jV-66" value="" style="group" parent="1" vertex="1" connectable="0">
          <mxGeometry x="19" y="50" width="210" height="290" as="geometry" />
        </mxCell>
        <mxCell id="IBf7kv-3qsiW5-9Bh0jV-65" style="edgeStyle=orthogonalEdgeStyle;rounded=1;orthogonalLoop=1;jettySize=auto;html=1;entryX=0;entryY=0.5;entryDx=0;entryDy=0;exitX=0.5;exitY=1;exitDx=0;exitDy=0;curved=0;strokeColor=#999999;" parent="IBf7kv-3qsiW5-9Bh0jV-66" source="IBf7kv-3qsiW5-9Bh0jV-20" target="IBf7kv-3qsiW5-9Bh0jV-3" edge="1">
          <mxGeometry relative="1" as="geometry" />
        </mxCell>
        <mxCell id="IBf7kv-3qsiW5-9Bh0jV-20" value="SDC1" style="ellipse;whiteSpace=wrap;html=1;fontSize=8;fillColor=#d5e8d4;strokeColor=#82b366;" parent="IBf7kv-3qsiW5-9Bh0jV-66" vertex="1">
          <mxGeometry x="20" y="30" width="40" height="20" as="geometry" />
        </mxCell>
        <mxCell id="IBf7kv-3qsiW5-9Bh0jV-21" value="FGFR3&lt;div&gt;&lt;span style=&quot;font-weight: normal;&quot;&gt;&lt;font style=&quot;font-size: 8px;&quot;&gt;ligand-independent signaling&lt;/font&gt;&lt;/span&gt;&lt;/div&gt;" style="text;html=1;align=center;verticalAlign=middle;whiteSpace=wrap;rounded=0;fontSize=10;fontStyle=1" parent="IBf7kv-3qsiW5-9Bh0jV-66" vertex="1">
          <mxGeometry x="60" y="230" width="90" height="50" as="geometry" />
        </mxCell>
        <mxCell id="IBf7kv-3qsiW5-9Bh0jV-22" value="" style="group" parent="IBf7kv-3qsiW5-9Bh0jV-66" vertex="1" connectable="0">
          <mxGeometry x="80" y="60" width="50" height="170" as="geometry" />
        </mxCell>
        <mxCell id="IBf7kv-3qsiW5-9Bh0jV-11" value="" style="group" parent="IBf7kv-3qsiW5-9Bh0jV-22" vertex="1" connectable="0">
          <mxGeometry width="20" height="170" as="geometry" />
        </mxCell>
        <mxCell id="IBf7kv-3qsiW5-9Bh0jV-1" value="" style="rounded=1;whiteSpace=wrap;html=1;fillColor=#ffe6cc;strokeColor=#d79b00;" parent="IBf7kv-3qsiW5-9Bh0jV-11" vertex="1">
          <mxGeometry y="130" width="20" height="40" as="geometry" />
        </mxCell>
        <mxCell id="IBf7kv-3qsiW5-9Bh0jV-9" style="edgeStyle=orthogonalEdgeStyle;rounded=0;orthogonalLoop=1;jettySize=auto;html=1;exitX=0.5;exitY=1;exitDx=0;exitDy=0;entryX=0.5;entryY=0;entryDx=0;entryDy=0;endArrow=none;endFill=0;" parent="IBf7kv-3qsiW5-9Bh0jV-11" source="IBf7kv-3qsiW5-9Bh0jV-2" target="IBf7kv-3qsiW5-9Bh0jV-6" edge="1">
          <mxGeometry relative="1" as="geometry" />
        </mxCell>
        <mxCell id="IBf7kv-3qsiW5-9Bh0jV-2" value="" style="rounded=1;whiteSpace=wrap;html=1;rotation=0;fillColor=#dae8fc;strokeColor=#6c8ebf;" parent="IBf7kv-3qsiW5-9Bh0jV-11" vertex="1">
          <mxGeometry y="40" width="20" height="30" as="geometry" />
        </mxCell>
        <mxCell id="IBf7kv-3qsiW5-9Bh0jV-8" style="edgeStyle=orthogonalEdgeStyle;rounded=0;orthogonalLoop=1;jettySize=auto;html=1;exitX=0.5;exitY=1;exitDx=0;exitDy=0;entryX=0.5;entryY=0;entryDx=0;entryDy=0;strokeWidth=1;strokeColor=default;endArrow=none;endFill=0;" parent="IBf7kv-3qsiW5-9Bh0jV-11" source="IBf7kv-3qsiW5-9Bh0jV-3" target="IBf7kv-3qsiW5-9Bh0jV-2" edge="1">
          <mxGeometry relative="1" as="geometry" />
        </mxCell>
        <mxCell id="IBf7kv-3qsiW5-9Bh0jV-3" value="" style="rounded=1;whiteSpace=wrap;html=1;rotation=0;fillColor=#dae8fc;strokeColor=#6c8ebf;" parent="IBf7kv-3qsiW5-9Bh0jV-11" vertex="1">
          <mxGeometry width="20" height="30" as="geometry" />
        </mxCell>
        <mxCell id="IBf7kv-3qsiW5-9Bh0jV-10" style="edgeStyle=orthogonalEdgeStyle;rounded=0;orthogonalLoop=1;jettySize=auto;html=1;exitX=0.5;exitY=1;exitDx=0;exitDy=0;entryX=0.5;entryY=0;entryDx=0;entryDy=0;endArrow=none;endFill=0;" parent="IBf7kv-3qsiW5-9Bh0jV-11" source="IBf7kv-3qsiW5-9Bh0jV-6" target="IBf7kv-3qsiW5-9Bh0jV-1" edge="1">
          <mxGeometry relative="1" as="geometry" />
        </mxCell>
        <mxCell id="IBf7kv-3qsiW5-9Bh0jV-6" value="" style="rounded=1;whiteSpace=wrap;html=1;rotation=0;fillColor=#dae8fc;strokeColor=#6c8ebf;" parent="IBf7kv-3qsiW5-9Bh0jV-11" vertex="1">
          <mxGeometry y="80" width="20" height="30" as="geometry" />
        </mxCell>
        <mxCell id="IBf7kv-3qsiW5-9Bh0jV-12" value="" style="group" parent="IBf7kv-3qsiW5-9Bh0jV-22" vertex="1" connectable="0">
          <mxGeometry x="30" width="20" height="170" as="geometry" />
        </mxCell>
        <mxCell id="IBf7kv-3qsiW5-9Bh0jV-13" value="" style="rounded=1;whiteSpace=wrap;html=1;fillColor=#ffe6cc;strokeColor=#d79b00;" parent="IBf7kv-3qsiW5-9Bh0jV-12" vertex="1">
          <mxGeometry y="130" width="20" height="40" as="geometry" />
        </mxCell>
        <mxCell id="IBf7kv-3qsiW5-9Bh0jV-14" style="edgeStyle=orthogonalEdgeStyle;rounded=0;orthogonalLoop=1;jettySize=auto;html=1;exitX=0.5;exitY=1;exitDx=0;exitDy=0;entryX=0.5;entryY=0;entryDx=0;entryDy=0;endArrow=none;endFill=0;" parent="IBf7kv-3qsiW5-9Bh0jV-12" source="IBf7kv-3qsiW5-9Bh0jV-15" target="IBf7kv-3qsiW5-9Bh0jV-19" edge="1">
          <mxGeometry relative="1" as="geometry" />
        </mxCell>
        <mxCell id="IBf7kv-3qsiW5-9Bh0jV-15" value="" style="rounded=1;whiteSpace=wrap;html=1;rotation=0;fillColor=#dae8fc;strokeColor=#6c8ebf;" parent="IBf7kv-3qsiW5-9Bh0jV-12" vertex="1">
          <mxGeometry y="40" width="20" height="30" as="geometry" />
        </mxCell>
        <mxCell id="IBf7kv-3qsiW5-9Bh0jV-16" style="edgeStyle=orthogonalEdgeStyle;rounded=0;orthogonalLoop=1;jettySize=auto;html=1;exitX=0.5;exitY=1;exitDx=0;exitDy=0;entryX=0.5;entryY=0;entryDx=0;entryDy=0;strokeWidth=1;strokeColor=default;endArrow=none;endFill=0;" parent="IBf7kv-3qsiW5-9Bh0jV-12" source="IBf7kv-3qsiW5-9Bh0jV-17" target="IBf7kv-3qsiW5-9Bh0jV-15" edge="1">
          <mxGeometry relative="1" as="geometry" />
        </mxCell>
        <mxCell id="IBf7kv-3qsiW5-9Bh0jV-17" value="" style="rounded=1;whiteSpace=wrap;html=1;rotation=0;fillColor=#dae8fc;strokeColor=#6c8ebf;" parent="IBf7kv-3qsiW5-9Bh0jV-12" vertex="1">
          <mxGeometry width="20" height="30" as="geometry" />
        </mxCell>
        <mxCell id="IBf7kv-3qsiW5-9Bh0jV-18" style="edgeStyle=orthogonalEdgeStyle;rounded=0;orthogonalLoop=1;jettySize=auto;html=1;exitX=0.5;exitY=1;exitDx=0;exitDy=0;entryX=0.5;entryY=0;entryDx=0;entryDy=0;endArrow=none;endFill=0;" parent="IBf7kv-3qsiW5-9Bh0jV-12" source="IBf7kv-3qsiW5-9Bh0jV-19" target="IBf7kv-3qsiW5-9Bh0jV-13" edge="1">
          <mxGeometry relative="1" as="geometry" />
        </mxCell>
        <mxCell id="IBf7kv-3qsiW5-9Bh0jV-19" value="" style="rounded=1;whiteSpace=wrap;html=1;rotation=0;fillColor=#dae8fc;strokeColor=#6c8ebf;" parent="IBf7kv-3qsiW5-9Bh0jV-12" vertex="1">
          <mxGeometry y="80" width="20" height="30" as="geometry" />
        </mxCell>
        <mxCell id="IBf7kv-3qsiW5-9Bh0jV-47" value="" style="group" parent="IBf7kv-3qsiW5-9Bh0jV-66" vertex="1" connectable="0">
          <mxGeometry x="161" y="70" width="20" height="120" as="geometry" />
        </mxCell>
        <mxCell id="IBf7kv-3qsiW5-9Bh0jV-44" style="edgeStyle=orthogonalEdgeStyle;rounded=0;orthogonalLoop=1;jettySize=auto;html=1;exitX=0.5;exitY=1;exitDx=0;exitDy=0;entryX=0.5;entryY=0;entryDx=0;entryDy=0;endArrow=none;endFill=0;" parent="IBf7kv-3qsiW5-9Bh0jV-47" source="IBf7kv-3qsiW5-9Bh0jV-41" target="IBf7kv-3qsiW5-9Bh0jV-42" edge="1">
          <mxGeometry relative="1" as="geometry" />
        </mxCell>
        <mxCell id="IBf7kv-3qsiW5-9Bh0jV-41" value="" style="rounded=1;whiteSpace=wrap;html=1;fillColor=#d5e8d4;strokeColor=#82b366;" parent="IBf7kv-3qsiW5-9Bh0jV-47" vertex="1">
          <mxGeometry width="20" height="20" as="geometry" />
        </mxCell>
        <mxCell id="IBf7kv-3qsiW5-9Bh0jV-46" style="edgeStyle=orthogonalEdgeStyle;rounded=0;orthogonalLoop=1;jettySize=auto;html=1;exitX=0.5;exitY=1;exitDx=0;exitDy=0;entryX=0.5;entryY=0;entryDx=0;entryDy=0;endArrow=none;endFill=0;" parent="IBf7kv-3qsiW5-9Bh0jV-47" source="IBf7kv-3qsiW5-9Bh0jV-42" target="IBf7kv-3qsiW5-9Bh0jV-43" edge="1">
          <mxGeometry relative="1" as="geometry" />
        </mxCell>
        <mxCell id="IBf7kv-3qsiW5-9Bh0jV-42" value="" style="rounded=1;whiteSpace=wrap;html=1;fillColor=#d5e8d4;strokeColor=#82b366;textDirection=vertical-rl;" parent="IBf7kv-3qsiW5-9Bh0jV-47" vertex="1">
          <mxGeometry y="30" width="20" height="30" as="geometry" />
        </mxCell>
        <mxCell id="IBf7kv-3qsiW5-9Bh0jV-43" value="" style="rounded=1;whiteSpace=wrap;html=1;fillColor=#ffe6cc;strokeColor=#d79b00;" parent="IBf7kv-3qsiW5-9Bh0jV-47" vertex="1">
          <mxGeometry y="100" width="20" height="20" as="geometry" />
        </mxCell>
        <mxCell id="IBf7kv-3qsiW5-9Bh0jV-62" style="edgeStyle=orthogonalEdgeStyle;rounded=1;orthogonalLoop=1;jettySize=auto;html=1;exitX=0.5;exitY=1;exitDx=0;exitDy=0;entryX=0.5;entryY=0;entryDx=0;entryDy=0;endArrow=classicThin;endFill=1;strokeColor=#999999;curved=0;" parent="IBf7kv-3qsiW5-9Bh0jV-66" source="IBf7kv-3qsiW5-9Bh0jV-51" target="IBf7kv-3qsiW5-9Bh0jV-3" edge="1">
          <mxGeometry relative="1" as="geometry" />
        </mxCell>
        <mxCell id="IBf7kv-3qsiW5-9Bh0jV-51" value="GPC3" style="ellipse;whiteSpace=wrap;html=1;fontSize=8;fillColor=#d5e8d4;strokeColor=#82b366;" parent="IBf7kv-3qsiW5-9Bh0jV-66" vertex="1">
          <mxGeometry x="85" width="40" height="20" as="geometry" />
        </mxCell>
        <mxCell id="IBf7kv-3qsiW5-9Bh0jV-61" style="edgeStyle=orthogonalEdgeStyle;rounded=1;orthogonalLoop=1;jettySize=auto;html=1;entryX=0.5;entryY=0;entryDx=0;entryDy=0;strokeColor=#999999;endArrow=classicThin;endFill=1;curved=0;" parent="IBf7kv-3qsiW5-9Bh0jV-66" source="IBf7kv-3qsiW5-9Bh0jV-52" target="IBf7kv-3qsiW5-9Bh0jV-17" edge="1">
          <mxGeometry relative="1" as="geometry" />
        </mxCell>
        <mxCell id="IBf7kv-3qsiW5-9Bh0jV-52" value="SDC4" style="ellipse;whiteSpace=wrap;html=1;fontSize=8;fillColor=#d5e8d4;strokeColor=#82b366;" parent="IBf7kv-3qsiW5-9Bh0jV-66" vertex="1">
          <mxGeometry x="140" y="30" width="40" height="20" as="geometry" />
        </mxCell>
        <mxCell id="IBf7kv-3qsiW5-9Bh0jV-58" style="edgeStyle=orthogonalEdgeStyle;rounded=1;orthogonalLoop=1;jettySize=auto;html=1;exitX=0.5;exitY=1;exitDx=0;exitDy=0;endArrow=classicThin;endFill=1;strokeColor=#999999;curved=0;" parent="IBf7kv-3qsiW5-9Bh0jV-66" source="IBf7kv-3qsiW5-9Bh0jV-57" edge="1">
          <mxGeometry relative="1" as="geometry">
            <mxPoint x="90" y="180" as="targetPoint" />
            <Array as="points">
              <mxPoint x="30" y="180" />
            </Array>
          </mxGeometry>
        </mxCell>
        <mxCell id="IBf7kv-3qsiW5-9Bh0jV-57" value="somatic mutations" style="text;html=1;align=center;verticalAlign=middle;whiteSpace=wrap;rounded=0;fontSize=8;" parent="IBf7kv-3qsiW5-9Bh0jV-66" vertex="1">
          <mxGeometry y="140" width="60" height="30" as="geometry" />
        </mxCell>
        <mxCell id="IBf7kv-3qsiW5-9Bh0jV-70" style="edgeStyle=orthogonalEdgeStyle;rounded=1;orthogonalLoop=1;jettySize=auto;html=1;entryX=1;entryY=0.5;entryDx=0;entryDy=0;curved=0;endArrow=classicThin;endFill=1;strokeColor=#999999;" parent="IBf7kv-3qsiW5-9Bh0jV-66" source="IBf7kv-3qsiW5-9Bh0jV-41" target="IBf7kv-3qsiW5-9Bh0jV-17" edge="1">
          <mxGeometry relative="1" as="geometry">
            <Array as="points">
              <mxPoint x="150" y="80" />
              <mxPoint x="150" y="75" />
            </Array>
          </mxGeometry>
        </mxCell>
        <mxCell id="IBf7kv-3qsiW5-9Bh0jV-117" value="TGFBR3" style="text;html=1;align=center;verticalAlign=middle;whiteSpace=wrap;rounded=0;fontSize=8;" parent="IBf7kv-3qsiW5-9Bh0jV-66" vertex="1">
          <mxGeometry x="141" y="190" width="60" height="30" as="geometry" />
        </mxCell>
        <mxCell id="IBf7kv-3qsiW5-9Bh0jV-91" value="" style="group" parent="1" vertex="1" connectable="0">
          <mxGeometry x="272" y="41" width="202" height="290" as="geometry" />
        </mxCell>
        <mxCell id="IBf7kv-3qsiW5-9Bh0jV-23" value="" style="group" parent="IBf7kv-3qsiW5-9Bh0jV-91" vertex="1" connectable="0">
          <mxGeometry x="85" y="70" width="50" height="170" as="geometry" />
        </mxCell>
        <mxCell id="IBf7kv-3qsiW5-9Bh0jV-24" value="" style="group" parent="IBf7kv-3qsiW5-9Bh0jV-23" vertex="1" connectable="0">
          <mxGeometry width="20" height="170" as="geometry" />
        </mxCell>
        <mxCell id="IBf7kv-3qsiW5-9Bh0jV-25" value="" style="rounded=1;whiteSpace=wrap;html=1;fillColor=#ffe6cc;strokeColor=#d79b00;" parent="IBf7kv-3qsiW5-9Bh0jV-24" vertex="1">
          <mxGeometry y="130" width="20" height="40" as="geometry" />
        </mxCell>
        <mxCell id="IBf7kv-3qsiW5-9Bh0jV-26" style="edgeStyle=orthogonalEdgeStyle;rounded=0;orthogonalLoop=1;jettySize=auto;html=1;exitX=0.5;exitY=1;exitDx=0;exitDy=0;entryX=0.5;entryY=0;entryDx=0;entryDy=0;endArrow=none;endFill=0;" parent="IBf7kv-3qsiW5-9Bh0jV-24" source="IBf7kv-3qsiW5-9Bh0jV-27" target="IBf7kv-3qsiW5-9Bh0jV-31" edge="1">
          <mxGeometry relative="1" as="geometry" />
        </mxCell>
        <mxCell id="IBf7kv-3qsiW5-9Bh0jV-27" value="" style="rounded=1;whiteSpace=wrap;html=1;rotation=0;fillColor=#dae8fc;strokeColor=#6c8ebf;" parent="IBf7kv-3qsiW5-9Bh0jV-24" vertex="1">
          <mxGeometry y="40" width="20" height="30" as="geometry" />
        </mxCell>
        <mxCell id="IBf7kv-3qsiW5-9Bh0jV-28" style="edgeStyle=orthogonalEdgeStyle;rounded=0;orthogonalLoop=1;jettySize=auto;html=1;exitX=0.5;exitY=1;exitDx=0;exitDy=0;entryX=0.5;entryY=0;entryDx=0;entryDy=0;strokeWidth=1;strokeColor=default;endArrow=none;endFill=0;" parent="IBf7kv-3qsiW5-9Bh0jV-24" source="IBf7kv-3qsiW5-9Bh0jV-29" target="IBf7kv-3qsiW5-9Bh0jV-27" edge="1">
          <mxGeometry relative="1" as="geometry" />
        </mxCell>
        <mxCell id="IBf7kv-3qsiW5-9Bh0jV-29" value="" style="rounded=1;whiteSpace=wrap;html=1;rotation=0;fillColor=#dae8fc;strokeColor=#6c8ebf;" parent="IBf7kv-3qsiW5-9Bh0jV-24" vertex="1">
          <mxGeometry width="20" height="30" as="geometry" />
        </mxCell>
        <mxCell id="IBf7kv-3qsiW5-9Bh0jV-30" style="edgeStyle=orthogonalEdgeStyle;rounded=0;orthogonalLoop=1;jettySize=auto;html=1;exitX=0.5;exitY=1;exitDx=0;exitDy=0;entryX=0.5;entryY=0;entryDx=0;entryDy=0;endArrow=none;endFill=0;" parent="IBf7kv-3qsiW5-9Bh0jV-24" source="IBf7kv-3qsiW5-9Bh0jV-31" target="IBf7kv-3qsiW5-9Bh0jV-25" edge="1">
          <mxGeometry relative="1" as="geometry" />
        </mxCell>
        <mxCell id="IBf7kv-3qsiW5-9Bh0jV-31" value="" style="rounded=1;whiteSpace=wrap;html=1;rotation=0;fillColor=#dae8fc;strokeColor=#6c8ebf;" parent="IBf7kv-3qsiW5-9Bh0jV-24" vertex="1">
          <mxGeometry y="80" width="20" height="30" as="geometry" />
        </mxCell>
        <mxCell id="IBf7kv-3qsiW5-9Bh0jV-32" value="" style="group" parent="IBf7kv-3qsiW5-9Bh0jV-23" vertex="1" connectable="0">
          <mxGeometry x="30" width="20" height="170" as="geometry" />
        </mxCell>
        <mxCell id="IBf7kv-3qsiW5-9Bh0jV-33" value="" style="rounded=1;whiteSpace=wrap;html=1;fillColor=#ffe6cc;strokeColor=#d79b00;" parent="IBf7kv-3qsiW5-9Bh0jV-32" vertex="1">
          <mxGeometry y="130" width="20" height="40" as="geometry" />
        </mxCell>
        <mxCell id="IBf7kv-3qsiW5-9Bh0jV-34" style="edgeStyle=orthogonalEdgeStyle;rounded=0;orthogonalLoop=1;jettySize=auto;html=1;exitX=0.5;exitY=1;exitDx=0;exitDy=0;entryX=0.5;entryY=0;entryDx=0;entryDy=0;endArrow=none;endFill=0;" parent="IBf7kv-3qsiW5-9Bh0jV-32" source="IBf7kv-3qsiW5-9Bh0jV-35" target="IBf7kv-3qsiW5-9Bh0jV-39" edge="1">
          <mxGeometry relative="1" as="geometry" />
        </mxCell>
        <mxCell id="IBf7kv-3qsiW5-9Bh0jV-35" value="" style="rounded=1;whiteSpace=wrap;html=1;rotation=0;fillColor=#dae8fc;strokeColor=#6c8ebf;" parent="IBf7kv-3qsiW5-9Bh0jV-32" vertex="1">
          <mxGeometry y="40" width="20" height="30" as="geometry" />
        </mxCell>
        <mxCell id="IBf7kv-3qsiW5-9Bh0jV-36" style="edgeStyle=orthogonalEdgeStyle;rounded=0;orthogonalLoop=1;jettySize=auto;html=1;exitX=0.5;exitY=1;exitDx=0;exitDy=0;entryX=0.5;entryY=0;entryDx=0;entryDy=0;strokeWidth=1;strokeColor=default;endArrow=none;endFill=0;" parent="IBf7kv-3qsiW5-9Bh0jV-32" source="IBf7kv-3qsiW5-9Bh0jV-37" target="IBf7kv-3qsiW5-9Bh0jV-35" edge="1">
          <mxGeometry relative="1" as="geometry" />
        </mxCell>
        <mxCell id="IBf7kv-3qsiW5-9Bh0jV-37" value="" style="rounded=1;whiteSpace=wrap;html=1;rotation=0;fillColor=#dae8fc;strokeColor=#6c8ebf;" parent="IBf7kv-3qsiW5-9Bh0jV-32" vertex="1">
          <mxGeometry width="20" height="30" as="geometry" />
        </mxCell>
        <mxCell id="IBf7kv-3qsiW5-9Bh0jV-38" style="edgeStyle=orthogonalEdgeStyle;rounded=0;orthogonalLoop=1;jettySize=auto;html=1;exitX=0.5;exitY=1;exitDx=0;exitDy=0;entryX=0.5;entryY=0;entryDx=0;entryDy=0;endArrow=none;endFill=0;" parent="IBf7kv-3qsiW5-9Bh0jV-32" source="IBf7kv-3qsiW5-9Bh0jV-39" target="IBf7kv-3qsiW5-9Bh0jV-33" edge="1">
          <mxGeometry relative="1" as="geometry" />
        </mxCell>
        <mxCell id="IBf7kv-3qsiW5-9Bh0jV-39" value="" style="rounded=1;whiteSpace=wrap;html=1;rotation=0;fillColor=#dae8fc;strokeColor=#6c8ebf;" parent="IBf7kv-3qsiW5-9Bh0jV-32" vertex="1">
          <mxGeometry y="80" width="20" height="30" as="geometry" />
        </mxCell>
        <mxCell id="IBf7kv-3qsiW5-9Bh0jV-40" value="FGFR1&lt;div&gt;&lt;span style=&quot;font-weight: normal;&quot;&gt;&lt;font style=&quot;font-size: 8px;&quot;&gt;o&lt;font style=&quot;&quot;&gt;verexpression, ligand- and binding protein-dependent signaling&lt;/font&gt;&lt;/font&gt;&lt;/span&gt;&lt;/div&gt;" style="text;html=1;align=center;verticalAlign=middle;whiteSpace=wrap;rounded=0;fontSize=10;fontStyle=1" parent="IBf7kv-3qsiW5-9Bh0jV-91" vertex="1">
          <mxGeometry x="35" y="240" width="150" height="50" as="geometry" />
        </mxCell>
        <mxCell id="IBf7kv-3qsiW5-9Bh0jV-76" style="edgeStyle=orthogonalEdgeStyle;rounded=1;orthogonalLoop=1;jettySize=auto;html=1;entryX=0;entryY=0.5;entryDx=0;entryDy=0;curved=0;strokeColor=#999999;endArrow=classicThin;endFill=1;" parent="IBf7kv-3qsiW5-9Bh0jV-91" source="IBf7kv-3qsiW5-9Bh0jV-67" target="IBf7kv-3qsiW5-9Bh0jV-29" edge="1">
          <mxGeometry relative="1" as="geometry" />
        </mxCell>
        <mxCell id="IBf7kv-3qsiW5-9Bh0jV-67" value="FGF2" style="ellipse;whiteSpace=wrap;html=1;fontSize=8;fillColor=#f8cecc;strokeColor=#b85450;" parent="IBf7kv-3qsiW5-9Bh0jV-91" vertex="1">
          <mxGeometry y="70" width="40" height="20" as="geometry" />
        </mxCell>
        <mxCell id="IBf7kv-3qsiW5-9Bh0jV-73" style="edgeStyle=orthogonalEdgeStyle;rounded=1;orthogonalLoop=1;jettySize=auto;html=1;entryX=0.5;entryY=0;entryDx=0;entryDy=0;exitX=0.5;exitY=1;exitDx=0;exitDy=0;curved=0;strokeColor=#999999;endArrow=classicThin;endFill=1;" parent="IBf7kv-3qsiW5-9Bh0jV-91" source="IBf7kv-3qsiW5-9Bh0jV-68" target="IBf7kv-3qsiW5-9Bh0jV-29" edge="1">
          <mxGeometry relative="1" as="geometry">
            <Array as="points">
              <mxPoint x="30" y="50" />
              <mxPoint x="95" y="50" />
            </Array>
          </mxGeometry>
        </mxCell>
        <mxCell id="IBf7kv-3qsiW5-9Bh0jV-68" value="FGF7" style="ellipse;whiteSpace=wrap;html=1;fontSize=8;fillColor=#f8cecc;strokeColor=#b85450;" parent="IBf7kv-3qsiW5-9Bh0jV-91" vertex="1">
          <mxGeometry x="10" y="20" width="40" height="20" as="geometry" />
        </mxCell>
        <mxCell id="IBf7kv-3qsiW5-9Bh0jV-74" style="edgeStyle=orthogonalEdgeStyle;rounded=1;orthogonalLoop=1;jettySize=auto;html=1;exitX=0.5;exitY=1;exitDx=0;exitDy=0;entryX=0.5;entryY=0;entryDx=0;entryDy=0;curved=0;strokeColor=#999999;endArrow=classicThin;endFill=1;" parent="IBf7kv-3qsiW5-9Bh0jV-91" source="IBf7kv-3qsiW5-9Bh0jV-69" target="IBf7kv-3qsiW5-9Bh0jV-29" edge="1">
          <mxGeometry relative="1" as="geometry">
            <Array as="points">
              <mxPoint x="80" y="40" />
              <mxPoint x="95" y="40" />
            </Array>
          </mxGeometry>
        </mxCell>
        <mxCell id="IBf7kv-3qsiW5-9Bh0jV-69" value="FGF10" style="ellipse;whiteSpace=wrap;html=1;fontSize=8;fillColor=#f8cecc;strokeColor=#b85450;" parent="IBf7kv-3qsiW5-9Bh0jV-91" vertex="1">
          <mxGeometry x="60" width="40" height="20" as="geometry" />
        </mxCell>
        <mxCell id="IBf7kv-3qsiW5-9Bh0jV-75" style="edgeStyle=orthogonalEdgeStyle;rounded=1;orthogonalLoop=1;jettySize=auto;html=1;entryX=0.5;entryY=0;entryDx=0;entryDy=0;curved=0;strokeColor=#999999;endArrow=classicThin;endFill=1;" parent="IBf7kv-3qsiW5-9Bh0jV-91" source="IBf7kv-3qsiW5-9Bh0jV-71" target="IBf7kv-3qsiW5-9Bh0jV-29" edge="1">
          <mxGeometry relative="1" as="geometry">
            <Array as="points">
              <mxPoint x="100" y="30" />
              <mxPoint x="100" y="50" />
              <mxPoint x="95" y="50" />
            </Array>
          </mxGeometry>
        </mxCell>
        <mxCell id="IBf7kv-3qsiW5-9Bh0jV-71" value="HSPG2" style="ellipse;whiteSpace=wrap;html=1;fontSize=8;fillColor=#d5e8d4;strokeColor=#82b366;" parent="IBf7kv-3qsiW5-9Bh0jV-91" vertex="1">
          <mxGeometry x="110" y="20" width="40" height="20" as="geometry" />
        </mxCell>
        <mxCell id="IBf7kv-3qsiW5-9Bh0jV-80" style="edgeStyle=orthogonalEdgeStyle;rounded=1;orthogonalLoop=1;jettySize=auto;html=1;exitX=1;exitY=0.5;exitDx=0;exitDy=0;curved=0;strokeColor=#999999;endArrow=classicThin;endFill=1;" parent="IBf7kv-3qsiW5-9Bh0jV-91" source="IBf7kv-3qsiW5-9Bh0jV-78" target="IBf7kv-3qsiW5-9Bh0jV-27" edge="1">
          <mxGeometry relative="1" as="geometry" />
        </mxCell>
        <mxCell id="IBf7kv-3qsiW5-9Bh0jV-78" value="SDC2" style="ellipse;whiteSpace=wrap;html=1;fontSize=8;fillColor=#d5e8d4;strokeColor=#82b366;" parent="IBf7kv-3qsiW5-9Bh0jV-91" vertex="1">
          <mxGeometry y="100" width="40" height="20" as="geometry" />
        </mxCell>
        <mxCell id="IBf7kv-3qsiW5-9Bh0jV-82" style="edgeStyle=orthogonalEdgeStyle;rounded=1;orthogonalLoop=1;jettySize=auto;html=1;entryX=0;entryY=0.5;entryDx=0;entryDy=0;curved=0;strokeColor=#999999;endArrow=openThin;endFill=0;" parent="IBf7kv-3qsiW5-9Bh0jV-91" source="IBf7kv-3qsiW5-9Bh0jV-79" target="IBf7kv-3qsiW5-9Bh0jV-31" edge="1">
          <mxGeometry relative="1" as="geometry" />
        </mxCell>
        <mxCell id="IBf7kv-3qsiW5-9Bh0jV-79" value="PTX3" style="ellipse;whiteSpace=wrap;html=1;fontSize=8;fillColor=#d5e8d4;strokeColor=#82b366;" parent="IBf7kv-3qsiW5-9Bh0jV-91" vertex="1">
          <mxGeometry y="130" width="40" height="20" as="geometry" />
        </mxCell>
        <mxCell id="IBf7kv-3qsiW5-9Bh0jV-83" value="" style="group" parent="IBf7kv-3qsiW5-9Bh0jV-91" vertex="1" connectable="0">
          <mxGeometry x="162" y="80" width="20" height="120" as="geometry" />
        </mxCell>
        <mxCell id="IBf7kv-3qsiW5-9Bh0jV-84" style="edgeStyle=orthogonalEdgeStyle;rounded=0;orthogonalLoop=1;jettySize=auto;html=1;exitX=0.5;exitY=1;exitDx=0;exitDy=0;entryX=0.5;entryY=0;entryDx=0;entryDy=0;endArrow=none;endFill=0;" parent="IBf7kv-3qsiW5-9Bh0jV-83" source="IBf7kv-3qsiW5-9Bh0jV-85" target="IBf7kv-3qsiW5-9Bh0jV-87" edge="1">
          <mxGeometry relative="1" as="geometry" />
        </mxCell>
        <mxCell id="IBf7kv-3qsiW5-9Bh0jV-85" value="" style="rounded=1;whiteSpace=wrap;html=1;fillColor=#d5e8d4;strokeColor=#82b366;" parent="IBf7kv-3qsiW5-9Bh0jV-83" vertex="1">
          <mxGeometry width="20" height="20" as="geometry" />
        </mxCell>
        <mxCell id="IBf7kv-3qsiW5-9Bh0jV-86" style="edgeStyle=orthogonalEdgeStyle;rounded=0;orthogonalLoop=1;jettySize=auto;html=1;exitX=0.5;exitY=1;exitDx=0;exitDy=0;entryX=0.5;entryY=0;entryDx=0;entryDy=0;endArrow=none;endFill=0;" parent="IBf7kv-3qsiW5-9Bh0jV-83" source="IBf7kv-3qsiW5-9Bh0jV-87" target="IBf7kv-3qsiW5-9Bh0jV-88" edge="1">
          <mxGeometry relative="1" as="geometry" />
        </mxCell>
        <mxCell id="IBf7kv-3qsiW5-9Bh0jV-87" value="" style="rounded=1;whiteSpace=wrap;html=1;fillColor=#d5e8d4;strokeColor=#82b366;" parent="IBf7kv-3qsiW5-9Bh0jV-83" vertex="1">
          <mxGeometry y="30" width="20" height="30" as="geometry" />
        </mxCell>
        <mxCell id="IBf7kv-3qsiW5-9Bh0jV-88" value="" style="rounded=1;whiteSpace=wrap;html=1;fillColor=#ffe6cc;strokeColor=#d79b00;" parent="IBf7kv-3qsiW5-9Bh0jV-83" vertex="1">
          <mxGeometry y="100" width="20" height="20" as="geometry" />
        </mxCell>
        <mxCell id="IBf7kv-3qsiW5-9Bh0jV-89" value="TGFBR3" style="text;html=1;align=center;verticalAlign=middle;whiteSpace=wrap;rounded=0;fontSize=8;" parent="IBf7kv-3qsiW5-9Bh0jV-91" vertex="1">
          <mxGeometry x="142" y="200" width="60" height="30" as="geometry" />
        </mxCell>
        <mxCell id="IBf7kv-3qsiW5-9Bh0jV-90" style="edgeStyle=orthogonalEdgeStyle;rounded=1;orthogonalLoop=1;jettySize=auto;html=1;entryX=1;entryY=0.5;entryDx=0;entryDy=0;curved=0;endArrow=classicThin;endFill=1;strokeColor=#999999;" parent="IBf7kv-3qsiW5-9Bh0jV-91" source="IBf7kv-3qsiW5-9Bh0jV-85" target="IBf7kv-3qsiW5-9Bh0jV-37" edge="1">
          <mxGeometry relative="1" as="geometry">
            <Array as="points">
              <mxPoint x="150" y="90" />
              <mxPoint x="150" y="85" />
            </Array>
          </mxGeometry>
        </mxCell>
        <mxCell id="IBf7kv-3qsiW5-9Bh0jV-116" style="edgeStyle=orthogonalEdgeStyle;rounded=1;orthogonalLoop=1;jettySize=auto;html=1;entryX=0.5;entryY=0;entryDx=0;entryDy=0;curved=0;strokeColor=#999999;endArrow=classicThin;endFill=1;" parent="IBf7kv-3qsiW5-9Bh0jV-91" source="IBf7kv-3qsiW5-9Bh0jV-115" target="IBf7kv-3qsiW5-9Bh0jV-37" edge="1">
          <mxGeometry relative="1" as="geometry" />
        </mxCell>
        <mxCell id="IBf7kv-3qsiW5-9Bh0jV-115" value="ANOS1" style="ellipse;whiteSpace=wrap;html=1;fontSize=8;fillColor=#d5e8d4;strokeColor=#82b366;" parent="IBf7kv-3qsiW5-9Bh0jV-91" vertex="1">
          <mxGeometry x="145" y="40" width="40" height="20" as="geometry" />
        </mxCell>
        <mxCell id="IBf7kv-3qsiW5-9Bh0jV-130" value="" style="group" parent="1" vertex="1" connectable="0">
          <mxGeometry x="502" y="60" width="170" height="270" as="geometry" />
        </mxCell>
        <mxCell id="IBf7kv-3qsiW5-9Bh0jV-95" value="" style="group" parent="IBf7kv-3qsiW5-9Bh0jV-130" vertex="1" connectable="0">
          <mxGeometry x="50" y="50" width="50" height="170" as="geometry" />
        </mxCell>
        <mxCell id="IBf7kv-3qsiW5-9Bh0jV-96" value="" style="group" parent="IBf7kv-3qsiW5-9Bh0jV-95" vertex="1" connectable="0">
          <mxGeometry width="20" height="170" as="geometry" />
        </mxCell>
        <mxCell id="IBf7kv-3qsiW5-9Bh0jV-97" value="" style="rounded=1;whiteSpace=wrap;html=1;fillColor=#ffe6cc;strokeColor=#d79b00;" parent="IBf7kv-3qsiW5-9Bh0jV-96" vertex="1">
          <mxGeometry y="130" width="20" height="40" as="geometry" />
        </mxCell>
        <mxCell id="IBf7kv-3qsiW5-9Bh0jV-98" style="edgeStyle=orthogonalEdgeStyle;rounded=0;orthogonalLoop=1;jettySize=auto;html=1;exitX=0.5;exitY=1;exitDx=0;exitDy=0;entryX=0.5;entryY=0;entryDx=0;entryDy=0;endArrow=none;endFill=0;" parent="IBf7kv-3qsiW5-9Bh0jV-96" source="IBf7kv-3qsiW5-9Bh0jV-99" target="IBf7kv-3qsiW5-9Bh0jV-103" edge="1">
          <mxGeometry relative="1" as="geometry" />
        </mxCell>
        <mxCell id="IBf7kv-3qsiW5-9Bh0jV-99" value="" style="rounded=1;whiteSpace=wrap;html=1;rotation=0;fillColor=#dae8fc;strokeColor=#6c8ebf;" parent="IBf7kv-3qsiW5-9Bh0jV-96" vertex="1">
          <mxGeometry y="40" width="20" height="30" as="geometry" />
        </mxCell>
        <mxCell id="IBf7kv-3qsiW5-9Bh0jV-100" style="edgeStyle=orthogonalEdgeStyle;rounded=0;orthogonalLoop=1;jettySize=auto;html=1;exitX=0.5;exitY=1;exitDx=0;exitDy=0;entryX=0.5;entryY=0;entryDx=0;entryDy=0;strokeWidth=1;strokeColor=default;endArrow=none;endFill=0;" parent="IBf7kv-3qsiW5-9Bh0jV-96" source="IBf7kv-3qsiW5-9Bh0jV-101" target="IBf7kv-3qsiW5-9Bh0jV-99" edge="1">
          <mxGeometry relative="1" as="geometry" />
        </mxCell>
        <mxCell id="IBf7kv-3qsiW5-9Bh0jV-101" value="" style="rounded=1;whiteSpace=wrap;html=1;rotation=0;fillColor=#dae8fc;strokeColor=#6c8ebf;" parent="IBf7kv-3qsiW5-9Bh0jV-96" vertex="1">
          <mxGeometry width="20" height="30" as="geometry" />
        </mxCell>
        <mxCell id="IBf7kv-3qsiW5-9Bh0jV-102" style="edgeStyle=orthogonalEdgeStyle;rounded=0;orthogonalLoop=1;jettySize=auto;html=1;exitX=0.5;exitY=1;exitDx=0;exitDy=0;entryX=0.5;entryY=0;entryDx=0;entryDy=0;endArrow=none;endFill=0;" parent="IBf7kv-3qsiW5-9Bh0jV-96" source="IBf7kv-3qsiW5-9Bh0jV-103" target="IBf7kv-3qsiW5-9Bh0jV-97" edge="1">
          <mxGeometry relative="1" as="geometry" />
        </mxCell>
        <mxCell id="IBf7kv-3qsiW5-9Bh0jV-103" value="" style="rounded=1;whiteSpace=wrap;html=1;rotation=0;fillColor=#dae8fc;strokeColor=#6c8ebf;" parent="IBf7kv-3qsiW5-9Bh0jV-96" vertex="1">
          <mxGeometry y="80" width="20" height="30" as="geometry" />
        </mxCell>
        <mxCell id="IBf7kv-3qsiW5-9Bh0jV-104" value="" style="group" parent="IBf7kv-3qsiW5-9Bh0jV-95" vertex="1" connectable="0">
          <mxGeometry x="30" width="20" height="170" as="geometry" />
        </mxCell>
        <mxCell id="IBf7kv-3qsiW5-9Bh0jV-105" value="" style="rounded=1;whiteSpace=wrap;html=1;fillColor=#ffe6cc;strokeColor=#d79b00;" parent="IBf7kv-3qsiW5-9Bh0jV-104" vertex="1">
          <mxGeometry y="130" width="20" height="40" as="geometry" />
        </mxCell>
        <mxCell id="IBf7kv-3qsiW5-9Bh0jV-106" style="edgeStyle=orthogonalEdgeStyle;rounded=0;orthogonalLoop=1;jettySize=auto;html=1;exitX=0.5;exitY=1;exitDx=0;exitDy=0;entryX=0.5;entryY=0;entryDx=0;entryDy=0;endArrow=none;endFill=0;" parent="IBf7kv-3qsiW5-9Bh0jV-104" source="IBf7kv-3qsiW5-9Bh0jV-107" target="IBf7kv-3qsiW5-9Bh0jV-111" edge="1">
          <mxGeometry relative="1" as="geometry" />
        </mxCell>
        <mxCell id="IBf7kv-3qsiW5-9Bh0jV-107" value="" style="rounded=1;whiteSpace=wrap;html=1;rotation=0;fillColor=#dae8fc;strokeColor=#6c8ebf;" parent="IBf7kv-3qsiW5-9Bh0jV-104" vertex="1">
          <mxGeometry y="40" width="20" height="30" as="geometry" />
        </mxCell>
        <mxCell id="IBf7kv-3qsiW5-9Bh0jV-108" style="edgeStyle=orthogonalEdgeStyle;rounded=0;orthogonalLoop=1;jettySize=auto;html=1;exitX=0.5;exitY=1;exitDx=0;exitDy=0;entryX=0.5;entryY=0;entryDx=0;entryDy=0;strokeWidth=1;strokeColor=default;endArrow=none;endFill=0;" parent="IBf7kv-3qsiW5-9Bh0jV-104" source="IBf7kv-3qsiW5-9Bh0jV-109" target="IBf7kv-3qsiW5-9Bh0jV-107" edge="1">
          <mxGeometry relative="1" as="geometry" />
        </mxCell>
        <mxCell id="IBf7kv-3qsiW5-9Bh0jV-109" value="" style="rounded=1;whiteSpace=wrap;html=1;rotation=0;fillColor=#dae8fc;strokeColor=#6c8ebf;" parent="IBf7kv-3qsiW5-9Bh0jV-104" vertex="1">
          <mxGeometry width="20" height="30" as="geometry" />
        </mxCell>
        <mxCell id="IBf7kv-3qsiW5-9Bh0jV-110" style="edgeStyle=orthogonalEdgeStyle;rounded=0;orthogonalLoop=1;jettySize=auto;html=1;exitX=0.5;exitY=1;exitDx=0;exitDy=0;entryX=0.5;entryY=0;entryDx=0;entryDy=0;endArrow=none;endFill=0;" parent="IBf7kv-3qsiW5-9Bh0jV-104" source="IBf7kv-3qsiW5-9Bh0jV-111" target="IBf7kv-3qsiW5-9Bh0jV-105" edge="1">
          <mxGeometry relative="1" as="geometry" />
        </mxCell>
        <mxCell id="IBf7kv-3qsiW5-9Bh0jV-111" value="" style="rounded=1;whiteSpace=wrap;html=1;rotation=0;fillColor=#dae8fc;strokeColor=#6c8ebf;" parent="IBf7kv-3qsiW5-9Bh0jV-104" vertex="1">
          <mxGeometry y="80" width="20" height="30" as="geometry" />
        </mxCell>
        <mxCell id="IBf7kv-3qsiW5-9Bh0jV-112" value="FGFR1&lt;div&gt;&lt;span style=&quot;font-weight: normal;&quot;&gt;&lt;font style=&quot;font-size: 8px;&quot;&gt;&lt;font style=&quot;&quot;&gt;ligand- and binding protein-dependent signaling&lt;/font&gt;&lt;/font&gt;&lt;/span&gt;&lt;/div&gt;" style="text;html=1;align=center;verticalAlign=middle;whiteSpace=wrap;rounded=0;fontSize=10;fontStyle=1" parent="IBf7kv-3qsiW5-9Bh0jV-130" vertex="1">
          <mxGeometry y="220" width="150" height="50" as="geometry" />
        </mxCell>
        <mxCell id="IBf7kv-3qsiW5-9Bh0jV-128" style="edgeStyle=orthogonalEdgeStyle;rounded=1;orthogonalLoop=1;jettySize=auto;html=1;exitX=0.5;exitY=1;exitDx=0;exitDy=0;entryX=0.5;entryY=0;entryDx=0;entryDy=0;curved=0;endArrow=classicThin;endFill=1;strokeColor=#999999;" parent="IBf7kv-3qsiW5-9Bh0jV-130" source="IBf7kv-3qsiW5-9Bh0jV-113" target="IBf7kv-3qsiW5-9Bh0jV-101" edge="1">
          <mxGeometry relative="1" as="geometry">
            <Array as="points">
              <mxPoint x="40" y="30" />
              <mxPoint x="60" y="30" />
            </Array>
          </mxGeometry>
        </mxCell>
        <mxCell id="IBf7kv-3qsiW5-9Bh0jV-113" value="FGFs" style="ellipse;whiteSpace=wrap;html=1;fontSize=8;fillColor=#f8cecc;strokeColor=#b85450;" parent="IBf7kv-3qsiW5-9Bh0jV-130" vertex="1">
          <mxGeometry x="20" width="40" height="20" as="geometry" />
        </mxCell>
        <mxCell id="IBf7kv-3qsiW5-9Bh0jV-129" style="edgeStyle=orthogonalEdgeStyle;rounded=1;orthogonalLoop=1;jettySize=auto;html=1;exitX=0.5;exitY=1;exitDx=0;exitDy=0;curved=0;endArrow=classicThin;endFill=1;strokeColor=#999999;" parent="IBf7kv-3qsiW5-9Bh0jV-130" source="IBf7kv-3qsiW5-9Bh0jV-114" edge="1">
          <mxGeometry relative="1" as="geometry">
            <mxPoint x="60" y="50" as="targetPoint" />
            <Array as="points">
              <mxPoint x="80" y="30" />
              <mxPoint x="60" y="30" />
            </Array>
          </mxGeometry>
        </mxCell>
        <mxCell id="IBf7kv-3qsiW5-9Bh0jV-114" value="FGFBP1" style="ellipse;whiteSpace=wrap;html=1;fontSize=8;fillColor=#d5e8d4;strokeColor=#82b366;" parent="IBf7kv-3qsiW5-9Bh0jV-130" vertex="1">
          <mxGeometry x="60" width="40" height="20" as="geometry" />
        </mxCell>
        <mxCell id="IBf7kv-3qsiW5-9Bh0jV-118" value="" style="group" parent="IBf7kv-3qsiW5-9Bh0jV-130" vertex="1" connectable="0">
          <mxGeometry x="130" y="60" width="20" height="120" as="geometry" />
        </mxCell>
        <mxCell id="IBf7kv-3qsiW5-9Bh0jV-119" style="edgeStyle=orthogonalEdgeStyle;rounded=0;orthogonalLoop=1;jettySize=auto;html=1;exitX=0.5;exitY=1;exitDx=0;exitDy=0;entryX=0.5;entryY=0;entryDx=0;entryDy=0;endArrow=none;endFill=0;" parent="IBf7kv-3qsiW5-9Bh0jV-118" source="IBf7kv-3qsiW5-9Bh0jV-120" target="IBf7kv-3qsiW5-9Bh0jV-122" edge="1">
          <mxGeometry relative="1" as="geometry" />
        </mxCell>
        <mxCell id="IBf7kv-3qsiW5-9Bh0jV-120" value="" style="rounded=1;whiteSpace=wrap;html=1;fillColor=#d5e8d4;strokeColor=#82b366;" parent="IBf7kv-3qsiW5-9Bh0jV-118" vertex="1">
          <mxGeometry width="20" height="20" as="geometry" />
        </mxCell>
        <mxCell id="IBf7kv-3qsiW5-9Bh0jV-121" style="edgeStyle=orthogonalEdgeStyle;rounded=0;orthogonalLoop=1;jettySize=auto;html=1;exitX=0.5;exitY=1;exitDx=0;exitDy=0;entryX=0.5;entryY=0;entryDx=0;entryDy=0;endArrow=none;endFill=0;" parent="IBf7kv-3qsiW5-9Bh0jV-118" source="IBf7kv-3qsiW5-9Bh0jV-122" target="IBf7kv-3qsiW5-9Bh0jV-123" edge="1">
          <mxGeometry relative="1" as="geometry" />
        </mxCell>
        <mxCell id="IBf7kv-3qsiW5-9Bh0jV-122" value="" style="rounded=1;whiteSpace=wrap;html=1;fillColor=#d5e8d4;strokeColor=#82b366;" parent="IBf7kv-3qsiW5-9Bh0jV-118" vertex="1">
          <mxGeometry y="30" width="20" height="30" as="geometry" />
        </mxCell>
        <mxCell id="IBf7kv-3qsiW5-9Bh0jV-123" value="" style="rounded=1;whiteSpace=wrap;html=1;fillColor=#ffe6cc;strokeColor=#d79b00;" parent="IBf7kv-3qsiW5-9Bh0jV-118" vertex="1">
          <mxGeometry y="100" width="20" height="20" as="geometry" />
        </mxCell>
        <mxCell id="IBf7kv-3qsiW5-9Bh0jV-124" value="CD44" style="text;html=1;align=center;verticalAlign=middle;whiteSpace=wrap;rounded=0;fontSize=8;" parent="IBf7kv-3qsiW5-9Bh0jV-130" vertex="1">
          <mxGeometry x="110" y="180" width="60" height="30" as="geometry" />
        </mxCell>
        <mxCell id="IBf7kv-3qsiW5-9Bh0jV-127" style="edgeStyle=orthogonalEdgeStyle;rounded=1;orthogonalLoop=1;jettySize=auto;html=1;entryX=0.5;entryY=0;entryDx=0;entryDy=0;curved=0;endArrow=classicThin;endFill=1;strokeColor=#999999;" parent="IBf7kv-3qsiW5-9Bh0jV-130" source="IBf7kv-3qsiW5-9Bh0jV-125" target="IBf7kv-3qsiW5-9Bh0jV-109" edge="1">
          <mxGeometry relative="1" as="geometry" />
        </mxCell>
        <mxCell id="IBf7kv-3qsiW5-9Bh0jV-125" value="TNFAIP6" style="ellipse;whiteSpace=wrap;html=1;fontSize=8;fillColor=#d5e8d4;strokeColor=#82b366;" parent="IBf7kv-3qsiW5-9Bh0jV-130" vertex="1">
          <mxGeometry x="110" y="20" width="40" height="20" as="geometry" />
        </mxCell>
        <mxCell id="IBf7kv-3qsiW5-9Bh0jV-126" style="edgeStyle=orthogonalEdgeStyle;rounded=1;orthogonalLoop=1;jettySize=auto;html=1;entryX=1;entryY=0.5;entryDx=0;entryDy=0;curved=0;strokeColor=#999999;endArrow=classicThin;endFill=1;" parent="IBf7kv-3qsiW5-9Bh0jV-130" source="IBf7kv-3qsiW5-9Bh0jV-120" target="IBf7kv-3qsiW5-9Bh0jV-109" edge="1">
          <mxGeometry relative="1" as="geometry">
            <Array as="points">
              <mxPoint x="120" y="70" />
              <mxPoint x="120" y="65" />
            </Array>
          </mxGeometry>
        </mxCell>
        <mxCell id="IBf7kv-3qsiW5-9Bh0jV-137" value="FGF5" style="ellipse;whiteSpace=wrap;html=1;fontSize=8;fillColor=#f8cecc;strokeColor=#b85450;" parent="IBf7kv-3qsiW5-9Bh0jV-130" vertex="1">
          <mxGeometry x="-12" y="50" width="40" height="20" as="geometry" />
        </mxCell>
        <mxCell id="IBf7kv-3qsiW5-9Bh0jV-138" style="edgeStyle=orthogonalEdgeStyle;rounded=1;orthogonalLoop=1;jettySize=auto;html=1;entryX=0.1;entryY=0.647;entryDx=0;entryDy=0;entryPerimeter=0;curved=0;endArrow=classicThin;endFill=1;strokeColor=#999999;" parent="IBf7kv-3qsiW5-9Bh0jV-130" source="IBf7kv-3qsiW5-9Bh0jV-137" target="IBf7kv-3qsiW5-9Bh0jV-101" edge="1">
          <mxGeometry relative="1" as="geometry">
            <Array as="points">
              <mxPoint x="38" y="60" />
              <mxPoint x="38" y="69" />
            </Array>
          </mxGeometry>
        </mxCell>
        <mxCell id="IBf7kv-3qsiW5-9Bh0jV-134" value="luminal papillary" style="text;html=1;align=center;verticalAlign=middle;whiteSpace=wrap;rounded=0;fontStyle=1;fontSize=10;" parent="1" vertex="1">
          <mxGeometry x="71" y="11" width="106" height="30" as="geometry" />
        </mxCell>
        <mxCell id="IBf7kv-3qsiW5-9Bh0jV-135" value="&lt;font style=&quot;font-size: 10px;&quot;&gt;stroma-rich&lt;/font&gt;" style="text;html=1;align=center;verticalAlign=middle;whiteSpace=wrap;rounded=0;fontStyle=1" parent="1" vertex="1">
          <mxGeometry x="330" y="11" width="106" height="30" as="geometry" />
        </mxCell>
        <mxCell id="IBf7kv-3qsiW5-9Bh0jV-136" value="&lt;font style=&quot;font-size: 10px;&quot;&gt;basal/squamous&lt;/font&gt;" style="text;html=1;align=center;verticalAlign=middle;whiteSpace=wrap;rounded=0;fontStyle=1" parent="1" vertex="1">
          <mxGeometry x="520" y="11" width="106" height="30" as="geometry" />
        </mxCell>
      </root>
    </mxGraphModel>
  </diagram>
</mxfile>
